<svg version="1" xmlns="http://www.w3.org/2000/svg" width="617.333" height="617.333" viewBox="0 0 463.000000 463.000000"><path d="M154 1.8c-17.4 5.8-25.8 25.5-18 42.1 7.3 15.5 25.8 21.7 41.7 14 4.7-2.3 11.2-9.1 13.7-14.3 3.7-7.9 3.3-19.6-.9-27.6-3.2-5.9-10.8-12.3-16.8-14.1C168.2.2 158.8.2 154 1.8zM300.8 1.5c-.2.1-2.4.5-5.1.8-6.1.8-14 5.1-18.3 10.1-12.8 14.9-8.2 38.7 9.1 47.2 11.6 5.6 25.1 3.9 34.1-4.4 5.4-4.9 6.2-6.1 8.5-12.4 6.3-17.4-4-36-22.5-40.3-3-.7-5.6-1.2-5.8-1z"/><path d="M228.1 14.2c-5.5.9-6.9 1.9-15.8 10.7l-7.1 7.1 1.3 4.4c1.8 5.8 1.2 15.2-1.2 20.7-2.5 5.7-9.4 12.6-15.2 15.3-3.5 1.6-6.5 2-12.6 2-4.4-.1-9.2-.5-10.6-.8-2.2-.7-3.8.5-14.6 11.3l-12 12.1 1.4 5.2c1.2 4.6 1.2 10.3 0 15.8-.7 3.4-4.2 9.2-7.6 12.8-7.2 7.6-18.1 10.8-28.6 8.4l-6-1.5-12.1 12.1-12.1 12.1 1.3 5.1c3.7 14.2-3 28.6-16.3 35.1-3.8 1.9-6.4 2.4-12.3 2.4-4.1 0-8.9-.4-10.6-.8-3.1-.8-3.6-.4-12.4 8.5-5 5.1-9.9 10.6-10.7 12.2-1.9 3.6-2 12.3-.3 15.7.7 1.3 5.2 6.5 10.2 11.5l8.9 9.1 4.6-1.2c21.7-5.5 42.2 15.4 36.2 36.9l-1.1 3.9L85.5 313l12.6 12.7 4.8-1.3c13.1-3.4 27.8 3.6 34.1 16.3 2.7 5.4 3.7 15.2 2.1 20.8l-1.1 4 12.7 12.7c11.8 11.9 12.8 12.6 15.2 11.6 4.3-1.6 13.2-1.3 19.1.7 7.6 2.5 15.9 10.9 18.3 18.4 1.9 6 2.2 12.9.7 18.1-1 3.4-.9 3.5 7.7 12.2 9.6 9.7 13.1 11.8 19.2 11.8 6.2 0 9.9-2 17.6-9.7 11.2-11.1 10.6-10.3 9.1-14.8-4.5-12.9 3.2-29.6 16.4-35.7 5.6-2.6 15.1-3.3 20.9-1.6l4.4 1.3 12.4-12.4c8.8-8.9 12.2-12.9 11.7-14-2.1-5.2-2.5-12.7-1.1-18.7 1.9-7.6 8.8-15.8 16.7-19.7 4.8-2.3 16.3-3 22.6-1.3 2.9.7 3.5.3 15.2-11.4 10.2-10.2 12.1-12.6 11.6-14.4-3.6-11.1-1.5-22.5 5.8-30.7 6.9-7.8 18.9-11.6 29.4-9.2l6.2 1.4 8.7-8.8c8.9-8.9 11.5-13 11.5-18 0-6.7-2-10.2-11.4-19.8-8.9-9.2-9.4-9.5-12.1-8.5-3.7 1.4-12 1.5-17.1.1-8.5-2.3-16.7-9.8-20.3-18.6-1.7-4.4-2.1-13.3-.8-18.2l1.1-4.2-12.5-12.4c-9.6-9.6-12.9-12.3-14.4-11.9-1.1.3-5.6.6-10 .8-6.7.2-8.6-.1-12.7-2.2-13.2-6.7-20.2-21.5-16.5-35.1l1.1-4.1-12.6-12.6C299.7 74.4 299.2 74 296.5 75c-1.6.6-5.1 1.1-7.9 1.1-20.1.3-34.6-17.2-30.6-36.6l1.2-5.7-7.9-7.7c-11.6-11.5-15.2-13.4-23.2-11.9z"/><path d="M89 66.7C76.3 71 68.2 82.4 68.2 95.8c.1 9.9 3.1 16.7 10.3 23 15.1 13.2 38.9 8.2 47.5-9.9 7.2-15.3.6-33.7-14.6-40.8-6-2.8-16.3-3.5-22.4-1.4zM357.3 67.9c-16.7 4.3-26.5 23.8-20.3 40.4 5.6 15 22.8 23.2 37.9 18.2 25.5-8.4 28.4-44.4 4.4-56.1-6.1-3-15.6-4.1-22-2.5zM24.9 131.5c-9 2.9-16.2 9.3-19.8 17.8-2.8 6.5-2.4 18.4.7 24.8 11.2 22.7 43.2 23 55 .5 2.3-4.4 2.7-6.3 2.7-13.6-.1-9.7-2.3-15.4-8.4-21.6-7.7-7.7-20.4-11-30.2-7.9zM420.5 133.8c-25 8.6-27.7 42.8-4.4 55.7 4.9 2.7 6.3 3 14.4 3 8.1 0 9.5-.3 14.3-2.9 6-3.3 10.1-7.6 13.4-13.9 1.9-3.5 2.3-5.8 2.3-13.2 0-8.1-.3-9.5-3-14.4-7.3-13.3-22.7-19.2-37-14.3zM23.5 272.5C10.4 276.4 2 286.7 1.2 299.9.3 313 7.1 324.3 19 329.8c14.7 6.8 33 .2 40.1-14.6 2.4-4.9 3.2-14.9 1.7-22-.8-3.9-4.8-10.4-8.7-13.9-7-6.5-19.7-9.5-28.6-6.8zM425 272c-9.4 1.7-18.2 8.8-22.3 17.9-3.2 7-2.9 17.9.7 25.3 9.4 19.7 35.6 23.3 50.4 6.9 3.5-3.8 5.9-9 6.9-14.7 1.3-6.9.7-11.8-2-17.8-6.1-13.2-19.5-20.2-33.7-17.6zM88.8 337.5c-8.6 2.3-15.6 8.1-20 16.5-3.3 6.4-3.3 19.4 0 26.1 11.4 23.1 44.1 23 55.5-.1 3.2-6.5 3.1-19.6-.1-26.1-6.5-13.1-21.5-20-35.4-16.4zM358 337.7c-9.4 2.4-16.3 8.2-20.3 17.2-2.9 6.4-2.9 17.9 0 24.2 6.4 14.2 22.1 21.5 36.8 17.1 26.9-7.8 29.5-45.2 4-56.8-6.6-3-13.2-3.6-20.5-1.7zM154.1 402.6c-10.2 2.7-17.4 9.1-21 18.8-5.7 15.3.9 31.3 15.9 38.4 10.9 5.2 25.5 2.6 34.2-6.1 11.1-11 11.7-31 1.3-41.9-8.4-8.8-19.3-12.1-30.4-9.2zM292.5 402.8c-17.9 5.2-27.1 24.8-19.6 41.7 10.4 23.5 43.1 24.2 55.4 1.2 1.8-3.5 2.2-5.8 2.2-13.7 0-8.7-.2-9.9-2.9-14.5-7.6-12.9-21.4-18.7-35.1-14.7z"/></svg>